PathFileType	4	(X/Y/Z)	/Users/itak/Documents/Research/Walk-IL/dataset/trc/00533_00183.trc
DataRate	CameraRate	NumFrames	NumMarkers	Units	OrigDataRate	OrigDataStartFrame	OrigNumFrames
100.000000	100.000000	4	53	mm	100.000000	391	522
Frame#	Time	RPSI			LPSI			L3			STRN			T10			C7			CLAV			RBAK			LBAK			LSHO			LUPA			LAEL			LAOL			LWTS			LWPS			LFRA			LIFD			LHPS			LHTS			RSHO			RUPA			RAEL			RAOL			RWTS			RWPS			RFRA			RIFD			RHTS			RHPS			RBHD			LFHD			RFHD			LBHD			LHIP			RHIP			RASI			LASI			LKNE			LTHI			LANK			LTIP			LTOE			LMT1			LMT5			LHEE			RKNE			RTHI			RANK			RTIP			RTOE			RMT1			RMT5			RHEE			
		X1	Y1	Z1	X2	Y2	Z2	X3	Y3	Z3	X4	Y4	Z4	X5	Y5	Z5	X6	Y6	Z6	X7	Y7	Z7	X8	Y8	Z8	X9	Y9	Z9	X10	Y10	Z10	X11	Y11	Z11	X12	Y12	Z12	X13	Y13	Z13	X14	Y14	Z14	X15	Y15	Z15	X16	Y16	Z16	X17	Y17	Z17	X18	Y18	Z18	X19	Y19	Z19	X20	Y20	Z20	X21	Y21	Z21	X22	Y22	Z22	X23	Y23	Z23	X24	Y24	Z24	X25	Y25	Z25	X26	Y26	Z26	X27	Y27	Z27	X28	Y28	Z28	X29	Y29	Z29	X30	Y30	Z30	X31	Y31	Z31	X32	Y32	Z32	X33	Y33	Z33	X34	Y34	Z34	X35	Y35	Z35	X36	Y36	Z36	X37	Y37	Z37	X38	Y38	Z38	X39	Y39	Z39	X40	Y40	Z40	X41	Y41	Z41	X42	Y42	Z42	X43	Y43	Z43	X44	Y44	Z44	X45	Y45	Z45	X46	Y46	Z46	X47	Y47	Z47	X48	Y48	Z48	X49	Y49	Z49	X50	Y50	Z50	X51	Y51	Z51	X52	Y52	Z52	X53	Y53	Z53	

392	3.91	683.9169311523438	957.6046752929688	512.8206176757812	748.8263549804688	956.3209838867188	407.0036010742188	716.3794555664062	1030.9453125	452.5959167480469	903.4583129882812	1200.725830078125	551.8545532226562	700.6483764648438	1134.214599609375	446.701171875	728.8699951171875	1365.97216796875	462.70849609375	869.2059326171875	1294.589965820312	533.573974609375	649.7564086914062	1244.057739257812	518.466552734375	748.4156494140625	1310.454223632812	374.213623046875	863.5691528320312	1361.292358398438	353.096923828125	898.49072265625	1238.333862304688	295.7405090332031	963.8494262695312	1038.1923828125	282.3524169921875	871.6891479492188	1009.02392578125	301.9175109863281	1074.433471679688	896.3644409179688	370.4239196777344	1045.153930664062	840.2623901367188	300.7369384765625	1000.95703125	970.2120971679688	295.7014770507812	1136.582641601562	752.0767211914062	386.8807678222656	1083.439453125	799.7716064453125	319.832275390625	1120.579956054688	831.6820068359375	362.6156005859375	710.587158203125	1363.415161132812	619.7222290039062	667.5027465820312	1296.628662109375	660.8963623046875	629.3711547851562	1031.986694335938	688.4794311523438	618.4763793945312	1016.835693359375	623.7139282226562	710.4098510742188	825.142333984375	734.0087890625	623.94873046875	807.2454833984375	710.4537963867188	624.748291015625	977.7120361328125	695.9510498046875	702.4098510742188	665.266357421875	733.5831909179688	698.269287109375	731.54443359375	759.4183959960938	636.4403076171875	732.65234375	725.5997924804688	707.7146606445312	1513.544189453125	539.5365600585938	882.0338745117188	1597.545532226562	488.1379089355469	811.5507202148438	1588.442749023438	593.572021484375	786.0801391601562	1519.33447265625	399.8196105957031	909.5062255859375	886.7247924804688	351.6578063964844	717.12548828125	865.23046875	679.7913208007812	832.5291137695312	918.5641479492188	670.251220703125	951.2266845703125	927.3673706054688	458.4134521484375	934.710205078125	469.927734375	444.5543212890625	944.8233032226562	626.486083984375	411.6798400878906	856.7120971679688	41.96250152587891	430.7379455566406	919.3062744140625	314.6862487792969	438.2055053710938	997.671142578125	28.22847747802734	585.393310546875	911.8395385742188	34.93979263305664	571.0731811523438	953.1920166015625	33.32472229003906	478.8096923828125	786.1233520507812	41.08426284790039	461.1836853027344	807.181396484375	485.0948181152344	674.1511840820312	757.2564086914062	738.1981201171875	698.1539916992188	711.3499755859375	57.64754486083984	642.0496826171875	804.380126953125	344.6758117675781	677.847412109375	896.3485717773438	55.68891143798828	720.91943359375	865.7410278320312	49.92392730712891	652.2369384765625	793.6129150390625	52.93010330200195	717.6194458007812	694.9332275390625	48.40008544921875	573.0398559570312	
393	3.92	687.11962890625	957.6802368164062	514.9234008789062	751.8553466796875	956.2307739257812	408.9796142578125	719.40380859375	1031.053955078125	454.3865356445312	906.6840209960938	1200.818603515625	553.6727905273438	703.636474609375	1134.474487304688	448.3439331054688	732.2918090820312	1366.167236328125	464.3097229003906	872.5061645507812	1294.70849609375	535.3729858398438	653.012451171875	1244.322143554688	520.0950317382812	751.9519653320312	1310.614013671875	375.8218383789062	867.18408203125	1361.381469726562	354.9159851074219	902.4838256835938	1238.417114257812	297.8210144042969	968.7762451171875	1038.8603515625	284.8655700683594	876.8305053710938	1008.931823730469	304.127685546875	1081.084228515625	899.7513427734375	374.0495300292969	1053.025146484375	842.6378784179688	304.7217102050781	1006.685302734375	971.8410034179688	298.7142028808594	1145.747924804688	756.7363891601562	391.7838439941406	1091.994506835938	802.95556640625	324.2341613769531	1128.399169921875	835.8515625	366.8358459472656	713.857666015625	1363.665771484375	621.3173828125	670.6865844726562	1296.97265625	662.4784545898438	632.2689819335938	1032.373168945312	690.2552490234375	621.5923461914062	1017.218627929688	625.407958984375	712.9818115234375	825.3241577148438	735.4680786132812	626.4013671875	807.6373291015625	712.2601318359375	627.5839233398438	978.1405029296875	697.7211303710938	704.6896362304688	665.4435424804688	734.7337646484375	700.78662109375	731.6956176757812	760.7269897460938	638.8320922851562	732.9492797851562	727.2159423828125	710.9356079101562	1513.557495117188	540.6981201171875	885.5281372070312	1597.731567382812	490.3162231445312	814.3987426757812	1588.652099609375	595.3582153320312	790.2142944335938	1519.283325195312	401.4129638671875	912.334228515625	886.7516479492188	353.3543701171875	720.859375	865.7431640625	682.0595092773438	836.113037109375	919.1708984375	672.1216430664062	954.394287109375	927.5042114257812	460.0834350585938	936.2968139648438	469.7454833984375	445.4443969726562	947.1387939453125	626.4873046875	413.3935852050781	856.619140625	42.13504791259766	430.9474792480469	920.0912475585938	314.5672912597656	438.8275146484375	997.7430419921875	28.25312805175781	585.487548828125	911.8734130859375	34.89430999755859	571.1145629882812	953.1822509765625	33.3646125793457	478.8684997558594	786.0958251953125	41.14425277709961	461.2667846679688	811.427001953125	485.5310363769531	676.6044311523438	761.0720825195312	738.7996826171875	700.6783447265625	723.4779663085938	55.38529586791992	647.998046875	811.4520874023438	344.4586486816406	680.6220092773438	910.8301391601562	57.31800842285156	721.55078125	878.3095703125	50.91291809082031	653.78955078125	808.0574951171875	52.29452133178711	721.1909790039062	705.427978515625	45.71478271484375	579.3770751953125	
394	3.93	690.2337036132812	957.69189453125	517.0840454101562	754.75634765625	956.107421875	411.0011291503906	722.3543701171875	1031.116088867188	456.2195129394531	909.7598876953125	1200.9482421875	555.4705810546875	706.4761962890625	1134.675170898438	450.0352478027344	735.4869384765625	1366.323120117188	465.9318237304688	875.619140625	1294.844970703125	537.1483764648438	656.1361083984375	1244.513916015625	521.7467651367188	755.236083984375	1310.7236328125	377.4542236328125	870.5119018554688	1361.469970703125	356.6974487304688	906.1598510742188	1238.505493164062	299.841064453125	973.3427124023438	1039.559326171875	287.3155822753906	881.6336059570312	1008.856506347656	306.3265075683594	1087.2646484375	902.9931640625	377.5632934570312	1060.364013671875	844.9374389648438	308.5858154296875	1012.037780761719	973.412841796875	301.6400756835938	1154.214477539062	761.2003173828125	396.5355224609375	1099.97998046875	806.03955078125	328.50537109375	1135.658813476562	839.832763671875	370.9365844726562	716.93798828125	1363.881713867188	622.92919921875	673.7186279296875	1297.269287109375	664.0988159179688	635.1409912109375	1032.70458984375	692.1592407226562	624.5626831054688	1017.530151367188	627.2597045898438	715.672607421875	825.49169921875	736.98974609375	628.9637451171875	807.9562377929688	714.2667236328125	630.4337768554688	978.5151977539062	699.6317138671875	707.20751953125	665.6056518554688	735.9478149414062	703.5603637695312	731.8265991210938	762.1119995117188	641.4105224609375	733.1985473632812	729.0003051757812	714.0089111328125	1513.680541992188	541.8466186523438	888.96142578125	1597.818603515625	492.4553833007812	817.1832885742188	1588.843627929688	597.1185913085938	794.1798095703125	1519.218872070312	402.9809875488281	915.2281494140625	886.8226318359375	355.1388244628906	724.5484008789062	866.22509765625	684.3946533203125	839.6377563476562	919.757080078125	673.9967041015625	957.501708984375	927.6849365234375	461.7603454589844	937.8154907226562	469.5815734863281	446.2424011230469	949.4247436523438	626.49267578125	415.0409545898438	856.5555419921875	42.30216217041016	431.09912109375	920.8048095703125	314.4641418457031	439.3418884277344	997.7953491210938	28.27293968200684	585.5545654296875	911.8956909179688	34.86256408691406	571.1449584960938	953.1763305664062	33.38693618774414	478.9045104980469	786.0961303710938	41.21081924438477	461.322021484375	815.7507934570312	485.9787902832031	679.1962280273438	764.9326782226562	739.399658203125	703.3243408203125	734.420654296875	53.62727355957031	653.0955200195312	818.19189453125	344.3223571777344	683.213134765625	923.8224487304688	58.60794448852539	721.4757690429688	889.432861328125	51.79892730712891	654.6464233398438	821.0922241210938	51.76155853271484	723.9697265625	714.6956787109375	43.77487182617188	584.95263671875	
395	3.94	693.2714233398438	957.6484985351562	519.3087768554688	757.5421752929688	955.9627685546875	413.0804443359375	725.2374877929688	1031.13525390625	458.1002197265625	912.6956176757812	1201.113525390625	557.2549438476562	709.1903076171875	1134.814453125	451.7727966308594	738.4593505859375	1366.43212890625	467.578125	878.5477905273438	1294.997192382812	538.9033813476562	659.1328735351562	1244.631958007812	523.42138671875	758.2747192382812	1310.77978515625	379.1117553710938	873.557373046875	1361.556274414062	358.4443969726562	909.5259399414062	1238.600463867188	301.7996826171875	977.54443359375	1040.278564453125	289.6974487304688	886.0848999023438	1008.801208496094	308.5037231445312	1092.977294921875	906.073486328125	380.9602966308594	1067.164184570312	847.150146484375	312.31298828125	1017.002685546875	974.9255981445312	304.4710693359375	1161.979125976562	765.4349975585938	401.11767578125	1107.382568359375	809.00048828125	332.6242980957031	1142.3544921875	843.6029663085938	374.9070129394531	719.8339233398438	1364.063598632812	624.556884765625	676.59716796875	1297.518920898438	665.762451171875	637.9856567382812	1032.982421875	694.1630859375	627.4150390625	1017.767883300781	629.2314453125	718.4690551757812	825.6484985351562	738.5912475585938	631.6370849609375	808.2085571289062	716.4388427734375	633.2908935546875	978.8321533203125	701.6557006835938	709.9366455078125	665.7564697265625	737.267333984375	706.5543212890625	731.9452514648438	763.6000366210938	644.1602783203125	733.4036254882812	730.942138671875	716.9385986328125	1513.909301757812	542.9879760742188	892.323486328125	1597.802978515625	494.5530090332031	819.9065551757812	1589.014770507812	598.8500366210938	797.9598388671875	1519.145263671875	404.5442810058594	918.1293334960938	886.9283447265625	356.9939880371094	728.1849975585938	866.653564453125	686.791015625	843.1015014648438	920.30029296875	675.8911743164062	960.5525512695312	927.899169921875	463.4578552246094	939.2817993164062	469.4358520507812	446.9823913574219	951.6865844726562	626.4993286132812	416.6334533691406	856.5261840820312	42.45888519287109	431.1892395019531	921.4783935546875	314.377197265625	439.7737121582031	997.827392578125	28.28804016113281	585.593505859375	911.9013061523438	34.84012985229492	571.1681518554688	953.174560546875	33.39494705200195	478.9210205078125	786.1219482421875	41.28686141967773	461.3469543457031	820.1185913085938	486.42138671875	681.8562622070312	768.8245239257812	739.9609375	706.0477905273438	744.12744140625	52.28489303588867	657.3272094726562	824.5208740234375	344.2427978515625	685.6077880859375	935.2393798828125	59.43067932128906	720.9140625	899.0970458984375	52.46151351928711	654.983642578125	832.6058349609375	51.25244522094727	726.0592651367188	722.7412719726562	42.49518966674805	589.7310791015625	
